# xmcd CD database file
#
# Track frame offsets:
#	150
#	21810
#	47919
#	61471
#	89626
#	116711
#	136510
#	166591
#	183954
#	191005
#	196842
#	226867
#	248763
#	262342
#
# Disc length: 3648 seconds
#
# Revision: 0
# Processed by: cddbd v1.5.2PL0 Copyright (c) Steve Scherf et al.
# Submitted via: CDex 1.70beta2
#
DISCID=bc0e3e0e
DTITLE=Jay Epstein - Easy Company
DYEAR=2008
DGENRE=Jazz
TTITLE0=Imperial March
TTITLE1=Ida Lupino
TTITLE2=N.R. Chi
TTITLE3=Giza
TTITLE4=Major Major
TTITLE5=Moon and Sand
TTITLE6=White Room
TTITLE7=Never Let Me Go
TTITLE8=Pick 3
TTITLE9=Giza Plateau
TTITLE10=Midnight With The Stars and You
TTITLE11=Sgt. Rock
TTITLE12=For All We Know
TTITLE13=Maus
EXTD=YEAR: 2008
EXTT0=
EXTT1=
EXTT2=
EXTT3=
EXTT4=
EXTT5=
EXTT6=
EXTT7=
EXTT8=
EXTT9=
EXTT10=
EXTT11=
EXTT12=
EXTT13=
PLAYORDER=
